<?xml version="1.0" standalone="no"?>
<!DOCTYPE svg PUBLIC "-//W3C//DTD SVG 20010904//EN"
 "http://www.w3.org/TR/2001/REC-SVG-20010904/DTD/svg10.dtd">
<svg version="1.0" xmlns="http://www.w3.org/2000/svg"
 width="640.000000pt" height="1280.000000pt" viewBox="0 0 640.000000 1280.000000"
 preserveAspectRatio="xMidYMid meet">
<metadata>
Created by potrace 1.15, written by Peter Selinger 2001-2017
</metadata>
<g transform="translate(0.000000,1280.000000) scale(0.100000,-0.100000)"
fill="#2196f3" stroke="none">
<path d="M3230 12794 c-658 -29 -927 -51 -1305 -105 -314 -45 -433 -86 -663
-230 -436 -273 -680 -595 -741 -979 -6 -42 -12 -681 -15 -1785 -3 -946 -9
-2463 -13 -3372 l-6 -1652 40 -41 41 -40 301 0 c165 0 301 -1 301 -2 0 -2 5
-570 10 -1263 12 -1581 29 -2280 61 -2510 42 -302 248 -529 588 -647 306 -106
774 -156 1506 -161 266 -2 320 1 470 21 474 65 816 148 1140 278 127 51 558
264 587 291 28 25 163 272 213 389 85 198 136 422 155 679 6 93 10 1808 10
5095 l0 4955 -29 60 c-126 266 -345 521 -582 678 -126 83 -369 213 -469 250
-165 62 -448 86 -1055 91 -258 2 -504 2 -545 0z m1002 -754 c245 -17 290 -26
404 -79 228 -109 311 -174 408 -323 l56 -86 0 -1339 0 -1338 -34 78 c-19 43
-69 130 -112 195 -124 186 -360 411 -557 530 -90 55 -424 129 -691 153 -135
13 -538 7 -731 -11 -451 -41 -529 -54 -711 -115 -210 -70 -431 -202 -570 -340
-135 -134 -263 -307 -343 -460 l-41 -80 6 1270 c3 699 10 1294 15 1324 11 68
50 153 94 207 40 48 130 117 265 201 80 50 112 63 205 86 257 63 585 99 1125
126 235 12 1038 12 1212 1z m-432 -2974 c194 -37 199 -39 287 -115 97 -84 181
-192 227 -291 l34 -75 5 -1770 c3 -973 11 -2440 17 -3260 13 -1643 7 -1531 73
-1579 27 -20 38 -21 344 -18 l316 4 -6 -184 c-10 -273 -44 -434 -123 -576
l-35 -62 -140 -70 c-335 -168 -584 -236 -1099 -301 -157 -19 -203 -21 -445
-15 -611 14 -986 52 -1150 117 l-60 24 -7 65 c-11 116 -28 661 -39 1250 -5
316 -13 1797 -16 3290 -6 2538 -5 2722 11 2820 22 133 62 250 109 322 92 139
260 299 373 357 50 26 157 47 284 56 52 3 174 13 270 20 96 8 198 17 225 19
28 2 131 2 230 1 142 -3 208 -9 315 -29z"/>
</g>
</svg>
